<mxfile host="app.diagrams.net" modified="2022-03-08T07:30:50.696Z" agent="5.0 (Windows NT 10.0; Win64; x64) AppleWebKit/537.36 (KHTML, like Gecko) Chrome/99.0.4844.51 Safari/537.36" etag="JwAf80SEGopraBqyAf0o" version="16.6.3" type="github">
  <diagram id="E9xSS5JAHT-Q8UjUCAS_" name="Page-1">
    <mxGraphModel dx="1422" dy="762" grid="1" gridSize="10" guides="1" tooltips="1" connect="1" arrows="1" fold="1" page="1" pageScale="1" pageWidth="827" pageHeight="1169" math="0" shadow="0">
      <root>
        <mxCell id="0" />
        <mxCell id="1" parent="0" />
        <mxCell id="aodUDUTSbuYzwURbkpAt-1" value="피드버그" style="rounded=0;whiteSpace=wrap;html=1;fillColor=#1ba1e2;strokeColor=#006EAF;fontColor=#ffffff;" vertex="1" parent="1">
          <mxGeometry x="210" y="90" width="120" height="60" as="geometry" />
        </mxCell>
        <mxCell id="aodUDUTSbuYzwURbkpAt-2" value="읽기 뷰어" style="rounded=0;whiteSpace=wrap;html=1;fillColor=#1ba1e2;strokeColor=#006EAF;fontColor=#ffffff;" vertex="1" parent="1">
          <mxGeometry x="210" y="230" width="120" height="60" as="geometry" />
        </mxCell>
        <mxCell id="aodUDUTSbuYzwURbkpAt-4" value="" style="endArrow=none;html=1;rounded=0;entryX=0.5;entryY=1;entryDx=0;entryDy=0;exitX=0.5;exitY=0;exitDx=0;exitDy=0;" edge="1" parent="1" source="aodUDUTSbuYzwURbkpAt-2" target="aodUDUTSbuYzwURbkpAt-1">
          <mxGeometry width="50" height="50" relative="1" as="geometry">
            <mxPoint x="440" y="430" as="sourcePoint" />
            <mxPoint x="490" y="380" as="targetPoint" />
          </mxGeometry>
        </mxCell>
        <mxCell id="aodUDUTSbuYzwURbkpAt-5" value="칭찬 피드백&amp;nbsp;&lt;br&gt;&amp;amp;&lt;br&gt;격려 피드백" style="rounded=0;whiteSpace=wrap;html=1;" vertex="1" parent="1">
          <mxGeometry x="210" y="370" width="120" height="60" as="geometry" />
        </mxCell>
        <mxCell id="aodUDUTSbuYzwURbkpAt-6" value="" style="endArrow=none;html=1;rounded=0;entryX=0.5;entryY=1;entryDx=0;entryDy=0;exitX=0.5;exitY=0;exitDx=0;exitDy=0;" edge="1" parent="1" source="aodUDUTSbuYzwURbkpAt-5">
          <mxGeometry width="50" height="50" relative="1" as="geometry">
            <mxPoint x="440" y="570" as="sourcePoint" />
            <mxPoint x="270" y="290" as="targetPoint" />
          </mxGeometry>
        </mxCell>
        <mxCell id="aodUDUTSbuYzwURbkpAt-7" value="새로고침" style="rounded=0;whiteSpace=wrap;html=1;" vertex="1" parent="1">
          <mxGeometry x="410" y="370" width="120" height="60" as="geometry" />
        </mxCell>
        <mxCell id="aodUDUTSbuYzwURbkpAt-8" value="" style="endArrow=none;html=1;rounded=0;entryX=0;entryY=0.5;entryDx=0;entryDy=0;exitX=1;exitY=0.5;exitDx=0;exitDy=0;" edge="1" parent="1" source="aodUDUTSbuYzwURbkpAt-5" target="aodUDUTSbuYzwURbkpAt-7">
          <mxGeometry width="50" height="50" relative="1" as="geometry">
            <mxPoint x="390" y="440" as="sourcePoint" />
            <mxPoint x="390" y="360" as="targetPoint" />
          </mxGeometry>
        </mxCell>
        <mxCell id="aodUDUTSbuYzwURbkpAt-10" value="전체보기" style="rounded=0;whiteSpace=wrap;html=1;" vertex="1" parent="1">
          <mxGeometry x="610" y="370" width="120" height="60" as="geometry" />
        </mxCell>
        <mxCell id="aodUDUTSbuYzwURbkpAt-11" value="" style="endArrow=none;html=1;rounded=0;entryX=0;entryY=0.5;entryDx=0;entryDy=0;exitX=1;exitY=0.5;exitDx=0;exitDy=0;" edge="1" parent="1" target="aodUDUTSbuYzwURbkpAt-10">
          <mxGeometry width="50" height="50" relative="1" as="geometry">
            <mxPoint x="530" y="400" as="sourcePoint" />
            <mxPoint x="590" y="360" as="targetPoint" />
          </mxGeometry>
        </mxCell>
        <mxCell id="aodUDUTSbuYzwURbkpAt-14" value="접속사 사용" style="rounded=0;whiteSpace=wrap;html=1;" vertex="1" parent="1">
          <mxGeometry x="810" y="370" width="120" height="60" as="geometry" />
        </mxCell>
        <mxCell id="aodUDUTSbuYzwURbkpAt-15" value="" style="endArrow=none;html=1;rounded=0;entryX=0;entryY=0.5;entryDx=0;entryDy=0;exitX=1;exitY=0.5;exitDx=0;exitDy=0;" edge="1" parent="1" target="aodUDUTSbuYzwURbkpAt-14">
          <mxGeometry width="50" height="50" relative="1" as="geometry">
            <mxPoint x="730" y="400" as="sourcePoint" />
            <mxPoint x="790" y="360" as="targetPoint" />
          </mxGeometry>
        </mxCell>
        <mxCell id="aodUDUTSbuYzwURbkpAt-16" value="피드백 작성 완료" style="rounded=0;whiteSpace=wrap;html=1;fillColor=#1ba1e2;strokeColor=#006EAF;fontColor=#ffffff;" vertex="1" parent="1">
          <mxGeometry x="1010" y="370" width="120" height="60" as="geometry" />
        </mxCell>
        <mxCell id="aodUDUTSbuYzwURbkpAt-18" value="&lt;b&gt;시나리오 1&lt;/b&gt;&lt;br&gt;교사인 기영이는 과제 피드백을 빠르게 끝내고 싶다." style="text;html=1;strokeColor=none;fillColor=none;align=left;verticalAlign=middle;whiteSpace=wrap;rounded=0;" vertex="1" parent="1">
          <mxGeometry x="30" y="90" width="170" height="60" as="geometry" />
        </mxCell>
        <mxCell id="aodUDUTSbuYzwURbkpAt-19" value="&lt;b&gt;시나리오 2&lt;/b&gt;&lt;br&gt;기영이는 학생의 글을 읽고 싶다." style="text;html=1;strokeColor=none;fillColor=none;align=left;verticalAlign=middle;whiteSpace=wrap;rounded=0;" vertex="1" parent="1">
          <mxGeometry x="25" y="230" width="180" height="60" as="geometry" />
        </mxCell>
        <mxCell id="aodUDUTSbuYzwURbkpAt-20" value="&lt;b&gt;시나리오 3&lt;/b&gt;&lt;br&gt;기영이는 학생의 글에 대해 피드백 하고 싶다." style="text;html=1;strokeColor=none;fillColor=none;align=left;verticalAlign=middle;whiteSpace=wrap;rounded=0;" vertex="1" parent="1">
          <mxGeometry x="20" y="370" width="180" height="60" as="geometry" />
        </mxCell>
        <mxCell id="aodUDUTSbuYzwURbkpAt-24" value="" style="endArrow=none;html=1;rounded=0;entryX=0;entryY=0.5;entryDx=0;entryDy=0;exitX=1;exitY=0.5;exitDx=0;exitDy=0;" edge="1" parent="1">
          <mxGeometry width="50" height="50" relative="1" as="geometry">
            <mxPoint x="930" y="399.5" as="sourcePoint" />
            <mxPoint x="1010" y="399.5" as="targetPoint" />
          </mxGeometry>
        </mxCell>
      </root>
    </mxGraphModel>
  </diagram>
</mxfile>
